<?xml version="1.0" encoding="utf-8"?>
<!-- Generator: Adobe Illustrator 16.0.0, SVG Export Plug-In . SVG Version: 6.00 Build 0)  -->
<!DOCTYPE svg PUBLIC "-//W3C//DTD SVG 1.1//EN" "http://www.w3.org/Graphics/SVG/1.1/DTD/svg11.dtd">
<svg version="1.1" id="Layer_1" xmlns="http://www.w3.org/2000/svg" xmlns:xlink="http://www.w3.org/1999/xlink" x="0px" y="0px"
	 width="500px" height="500px" viewBox="0 0 500 500" enable-background="new 0 0 500 500" xml:space="preserve">
<g>
	<path fill="#FFFFFF" stroke="#000000" stroke-miterlimit="10" d="M250,164.107c-14.77,0-59.353,10.501-59.08,65.584
		c0.273,55.083,44.31,71.583,44.31,71.583s-25.44-15.5-44.311,0c-8.122,6.67-8.735,5.578-18.168,0.307
		c-25.5-14.25-41.731-0.307-41.731-0.307l-1.519-72.158c0,0,13.281-24.51-9-26.536c-19.25-1.75-27.25,12.5-15.5,26.536
		c9.833,11.745,0.64,77.833,0.64,77.833s8.797,12.497,26.2,18.155c49.91,16.227,86.705,9.334,86.705,9.334"/>
	<path fill="#FFFFFF" stroke="#000000" stroke-miterlimit="10" d="M250,164.107"/>
	<path fill="#FFFFFF" stroke="#000000" stroke-miterlimit="10" d="M250,164.107c14.77,0,59.354,10.501,59.081,65.584
		c-0.273,55.083-44.311,71.583-44.311,71.583s25.439-15.5,44.311,0c8.123,6.67,8.736,5.578,18.17,0.307
		c25.5-14.25,41.73-0.307,41.73-0.307l1.52-72.158c0,0-13.281-24.51,9-26.536c19.25-1.75,27.249,12.5,15.5,26.536
		c-9.834,11.746-0.641,77.833-0.641,77.833s-8.797,12.496-26.201,18.154c-49.908,16.227-86.703,9.334-86.703,9.334"/>
</g>
<path fill="none" stroke="#000000" stroke-miterlimit="10" d="M225.002,257c0,13.266,11.181,24,24.998,24"/>
<path fill="none" stroke="#000000" stroke-miterlimit="10" d="M272.336,257c0,13.266-9.99,24-22.336,24"/>
<line fill="none" stroke="#000000" stroke-miterlimit="10" x1="225.002" y1="257" x2="272.336" y2="257"/>
</svg>
