<?xml version="1.0" encoding="utf-8"?>
<!-- Generator: Adobe Illustrator 16.0.0, SVG Export Plug-In . SVG Version: 6.00 Build 0)  -->
<!DOCTYPE svg PUBLIC "-//W3C//DTD SVG 1.1//EN" "http://www.w3.org/Graphics/SVG/1.1/DTD/svg11.dtd">
<svg version="1.1" id="Layer_1" xmlns="http://www.w3.org/2000/svg" xmlns:xlink="http://www.w3.org/1999/xlink" x="0px" y="0px"
	 width="500px" height="500px" viewBox="0 0 500 500" enable-background="new 0 0 500 500" xml:space="preserve">
<path fill="#FFFFFF" stroke="#000000" stroke-miterlimit="10" d="M249.999,164.834c14.771,0,59.354,10.501,59.08,65.584
	s-44.31,71.583-44.31,71.583s25.44-15.5,44.312,0s59.899,0,59.899,0l59.354-70.833c0,0-1.643-28.004,20.239-23.337
	c21.881,4.667,15.317,36.667,0,36.667s-49.781,58-49.781,58s-12.385,24.685-30.634,23.333c-19.463-1.441-86.705,9.335-86.705,9.335"
	/>
<path fill="#FFFFFF" stroke="#000000" stroke-miterlimit="10" d="M249.999,164.834c-14.77,0-59.353,10.501-59.08,65.584
	s44.31,71.583,44.31,71.583s-25.44-15.5-44.311,0c-18.872,15.5-59.899,0-59.899,0l-59.354-70.833c0,0,1.642-28.004-20.239-23.337
	c-21.881,4.667-15.317,36.667,0,36.667s49.781,58,49.781,58s12.385,24.685,30.634,23.333c19.463-1.441,86.705,9.335,86.705,9.335"/>
<path fill="#FFFFFF" stroke="#000000" stroke-width="11" stroke-miterlimit="10" d="M224.544,219.515
	c0,0,1.687-28.139,29.626-24.498c22.742,2.964,24.997,15.479,22.792,31.199c-0.864,6.171-11.818,11.502-26.595,14.25
	c-14.777,2.747-13.617,17.499-3.494,24.529"/>
<circle fill="#FFFFFF" stroke="#000000" stroke-width="6" stroke-miterlimit="10" cx="249.915" cy="275.501" r="4.667"/>
</svg>
