<?xml version="1.0" encoding="utf-8"?>
<!-- Generator: Adobe Illustrator 16.0.0, SVG Export Plug-In . SVG Version: 6.00 Build 0)  -->
<!DOCTYPE svg PUBLIC "-//W3C//DTD SVG 1.1//EN" "http://www.w3.org/Graphics/SVG/1.1/DTD/svg11.dtd">
<svg version="1.1" id="Layer_1" xmlns="http://www.w3.org/2000/svg" xmlns:xlink="http://www.w3.org/1999/xlink" x="0px" y="0px"
	 width="500px" height="500px" viewBox="0 0 500 500" enable-background="new 0 0 500 500" xml:space="preserve">
<g>
	<g>
		<path fill="#FFFFFF" stroke="#000000" stroke-miterlimit="10" d="M249.999,184.162c-14.77,0-59.353,10.501-59.08,65.584
			s44.31,71.583,44.31,71.583s-25.44-15.5-44.311,0c-18.872,15.5-59.899,0-59.899,0l26.231-20.079"/>
		<path fill="none" stroke="#000000" stroke-miterlimit="10" d="M140.75,296.5l-34,26.25c0,0-5.5,8.5,8.5,10s85.75,12.5,85.75,12.5"
			/>
	</g>
	<g>
		<path fill="#FFFFFF" stroke="#000000" stroke-miterlimit="10" d="M250,184.162c14.77,0,59.353,10.501,59.08,65.584
			s-44.31,71.583-44.31,71.583s25.439-15.5,44.311,0c18.872,15.5,59.9,0,59.9,0l-26.232-20.079"/>
		<path fill="none" stroke="#000000" stroke-miterlimit="10" d="M359.248,296.5l34,26.25c0,0,5.5,8.5-8.5,10s-85.75,12.5-85.75,12.5
			"/>
	</g>
</g>
<line fill="none" stroke="#000000" stroke-miterlimit="10" x1="71.001" y1="290.336" x2="71.001" y2="71.669"/>
<line fill="none" stroke="#000000" stroke-miterlimit="10" x1="432.335" y1="71.669" x2="71.001" y2="71.669"/>
<line fill="none" stroke="#000000" stroke-miterlimit="10" x1="432.335" y1="290.336" x2="432.335" y2="71.669"/>
<line fill="none" stroke="#000000" stroke-miterlimit="10" x1="71.001" y1="290.336" x2="201.083" y2="290.336"/>
<line fill="none" stroke="#000000" stroke-miterlimit="10" x1="298.998" y1="290.196" x2="432.335" y2="290.196"/>
<line fill="none" stroke="#000000" stroke-miterlimit="10" x1="71.001" y1="290.336" x2="44.334" y2="325.001"/>
<line fill="none" stroke="#000000" stroke-miterlimit="10" x1="44.334" y1="325.001" x2="106.75" y2="325.001"/>
<line fill="none" stroke="#000000" stroke-miterlimit="10" x1="393.248" y1="322.75" x2="458.335" y2="322.75"/>
<line fill="none" stroke="#000000" stroke-miterlimit="10" x1="458.335" y1="322.75" x2="432.335" y2="290.336"/>
</svg>
